<svg id="logo" xmlns="http://www.w3.org/2000/svg" viewBox="0 0 602.8 170.6"><path fill="var(--st0)" class="st0" d="M102.5 0H35.7C16 0 0 16 0 35.7V170.6l18.4-26.1H102.5c19.7 0 35.7-16 35.7-35.7V0h-35.7z"/><g class="st1"><path fill="var(--st4)" class="st4" d="M179.4 133.7h-2.1v-8.6h-10.1v8.6h-2.1v-18.8h2.1v8.4h10.1v-8.4h2.1v18.8zM192.2 134c-1.6 0-3-.4-4.3-1.2s-2.3-1.9-3-3.3c-.7-1.4-1.1-3-1.1-4.7v-.7c0-1.8.3-3.4 1-4.9.7-1.4 1.7-2.6 2.9-3.4 1.2-.8 2.6-1.2 4.1-1.2 2.3 0 4.1.8 5.4 2.3 1.3 1.6 2 3.7 2 6.4v1.2h-13.4v.4c0 2.1.6 3.9 1.8 5.3 1.2 1.4 2.8 2.1 4.6 2.1 1.1 0 2.1-.2 2.9-.6.8-.4 1.6-1.1 2.3-1.9l1.3 1c-1.4 2.1-3.6 3.2-6.5 3.2zm-.4-17.7c-1.6 0-2.9.6-3.9 1.7s-1.7 2.7-2 4.6h11.3v-.2c-.1-1.8-.6-3.3-1.5-4.4-1-1.1-2.3-1.7-3.9-1.7zM202.9 131.9l.9-1.2c1.5-2 2.3-4.9 2.5-8.7l.3-7.1h11.1v17h1.9v7.3h-2.1v-5.5h-14.1v5.5h-2v-7.3h1.5zm2.4 0h10.4v-15.1h-7l-.2 4.9c-.3 4.5-1.4 7.9-3.2 10.2zM223.9 133.7v-18.8h6.9c2.4 0 4.2.4 5.5 1.3 1.3.8 1.9 2.1 1.9 3.7 0 .9-.3 1.8-.9 2.5s-1.4 1.3-2.5 1.6c1.2.2 2.2.8 3 1.6.7.8 1.1 1.8 1.1 2.9 0 1.7-.6 2.9-1.8 3.8-1.2.9-2.9 1.4-5.2 1.4h-8zm2-10.4h5.3c3.3 0 4.9-1.2 4.9-3.3 0-1.1-.4-2-1.3-2.5s-2.2-.8-4-.8H226v6.6zm0 1.7v6.9h6c1.6 0 2.8-.3 3.6-.9.8-.6 1.3-1.5 1.3-2.6 0-1-.4-1.9-1.3-2.5-.8-.6-2-.9-3.6-.9h-6zM255.8 114.9h2.1v18.8h-2.1v-15.4l-10.1 15.4h-2.1v-18.8h2.1v15.4l10.1-15.4zM277.8 125h-2.5v8.7h-2.1V125h-2.5l-6.9 8.7h-2.6l7.8-9.6-6.9-9.1h2.5l6.2 8.2h2.5V115h2.1v8.2h2.5l6.2-8.2h2.5l-6.9 9.1 7.8 9.6h-2.7l-7-8.7zM303 114.9h2.1v18.8H303v-15.4l-10.1 15.4h-2.1v-18.8h2.1v15.4l10.1-15.4zM321.1 130.8l7.5-16h2.6v18.8H329v-15.4l-7.2 15.4h-1.5l-7.4-15.7v15.7h-2.1v-18.8h2.7l7.6 16zM335.5 124c0-1.8.3-3.4 1-4.9s1.7-2.6 3-3.4 2.7-1.2 4.3-1.2c2.5 0 4.5.9 6.1 2.6 1.5 1.8 2.3 4.1 2.3 7v.4c0 1.8-.3 3.4-1 4.9-.7 1.5-1.7 2.6-3 3.4s-2.7 1.2-4.4 1.2c-2.5 0-4.5-.9-6.1-2.6-1.6-1.8-2.3-4.1-2.3-7v-.4zm2.1.6c0 2.2.6 4.1 1.7 5.5 1.2 1.4 2.7 2.2 4.6 2.2 1.9 0 3.4-.7 4.6-2.2s1.7-3.3 1.7-5.7v-.4c0-1.4-.3-2.7-.8-3.9-.5-1.2-1.3-2.1-2.2-2.8-1-.7-2.1-1-3.3-1-1.8 0-3.4.7-4.5 2.2s-1.8 3.3-1.8 5.7v.4zM363.5 132.3c1.4 0 2.7-.4 3.6-1.2 1-.8 1.5-1.9 1.6-3.2h2c-.1 1.1-.4 2.2-1.1 3.1-.7.9-1.5 1.7-2.6 2.2-1.1.5-2.3.8-3.5.8-2.5 0-4.4-.9-5.9-2.6s-2.2-4-2.2-6.9v-.6c0-1.8.3-3.5 1-4.9.6-1.4 1.6-2.5 2.8-3.3 1.2-.8 2.6-1.2 4.2-1.2 2.1 0 3.8.6 5.1 1.8 1.3 1.2 2 2.8 2.1 4.8h-2c-.1-1.5-.6-2.7-1.6-3.6-1-.9-2.2-1.4-3.7-1.4-1.9 0-3.3.7-4.4 2-1 1.4-1.6 3.2-1.6 5.7v.6c0 2.4.5 4.3 1.6 5.6 1.2 1.6 2.7 2.3 4.6 2.3zM388.3 116.7h-6.8v17h-2.1v-17h-6.6v-1.8h15.5v1.8zM394 121.7h5.4c1.4 0 2.6.3 3.7.8 1 .5 1.8 1.2 2.4 2.1.5.9.8 1.9.8 3.1 0 1.8-.6 3.3-1.9 4.4-1.2 1.1-2.9 1.6-5 1.6H392v-18.8h2.1v6.8zm0 1.8v8.4h5.4c1.5 0 2.7-.4 3.5-1.1.8-.8 1.3-1.8 1.3-3.1 0-1.2-.4-2.3-1.2-3-.8-.8-2-1.2-3.4-1.2H394z"/></g><g class="st1"><path fill="var(--st4)" class="st4" d="M192.5 72.8h-7.8v23.5h-16.4V24.8H197c13.6 0 24.5 10.9 24.5 24.5 0 8.8-5.3 16.8-13.2 20.7l15.2 26.3H206l-13.5-23.5zm-7.7-14.3H197c4.5 0 8.2-4 8.2-9.2 0-5.2-3.7-9.2-8.2-9.2h-12.3v18.4z"/></g><g class="st1"><path fill="var(--st4)" class="st4" d="M276.2 80.6v15.7h-45V24.8h44.5v15.7h-28.1v11.9h25.5v15.5h-25.5v12.7h28.6z"/></g><g class="st1"><path fill="var(--st4)" class="st4" d="M335.4 40.5H317v55.8h-16.4V40.5h-18.4V24.8h53.1v15.7z"/></g><g class="st1"><path fill="var(--st4)" class="st4" d="M384.5 85.1h-26.6l-3.6 11.2h-17.9l24.3-71.5h20.8L406 96.3h-17.9l-3.6-11.2zm-4.9-15.4l-8.4-26.3-8.4 26.3h16.8z"/></g><g class="st1"><path fill="var(--st4)" class="st4" d="M430.5 24.8v71.5h-16.3V24.8h16.3z"/></g><g class="st1"><path fill="var(--st4)" class="st4" d="M484.5 80.6v15.7h-41.9V24.8H459v55.8h25.5zM536.6 80.6v15.7h-45V24.8h44.5v15.7H508v11.9h25.5v15.5H508v12.7h28.6z"/></g><g class="st1"><path fill="var(--st4)" class="st4" d="M571.7 72.8H564v23.5h-16.3V24.8h28.6c13.6 0 24.5 10.9 24.5 24.5 0 8.8-5.3 16.8-13.2 20.7l15.2 26.3h-17.6l-13.5-23.5zM564 58.5h12.3c4.5 0 8.2-4 8.2-9.2 0-5.2-3.7-9.2-8.2-9.2H564v18.4z"/></g><g><path fill="var(--st2)" class="st2" d="M57.88 29.6h3.32v3.32h-3.32zM67.8 29.6h3.32v3.32H67.8z"/><path fill="var(--st2)" class="st2" d="M71.08 29.6h3.32v3.32h-3.32zM74.4 29.6h3.32v3.32H74.4zM54.6 32.88h3.32v3.32H54.6z"/><path fill="var(--st2)" class="st2" d="M57.88 32.88h3.32v3.32h-3.32zM61.2 32.88h3.32v3.32H61.2z"/><path fill="var(--st2)" class="st2" d="M64.48 32.88h3.32v3.32h-3.32zM67.8 32.88h3.32v3.32H67.8zM54.6 36.2h3.32v3.32H54.6z"/><path fill="var(--st2)" class="st2" d="M57.88 36.2h3.32v3.32h-3.32zM61.2 36.2h3.32v3.32H61.2z"/><path fill="var(--st2)" class="st2" d="M64.48 36.2h3.32v3.32h-3.32zM74.4 36.2h3.32v3.32H74.4z"/><path fill="var(--st2)" class="st2" d="M77.68 36.2H81v3.32h-3.32zM81 36.2h3.32v3.32H81zM54.6 39.48h3.32v3.32H54.6zM64.48 39.48h3.32v3.32h-3.32zM67.8 39.48h3.32v3.32H67.8z"/><path fill="var(--st2)" class="st2" d="M71.08 39.48h3.32v3.32h-3.32zM57.88 42.8h3.32v3.32h-3.32zM64.48 42.8h3.32v3.32h-3.32zM67.8 42.8h3.32v3.32H67.8z"/><path fill="var(--st2)" class="st2" d="M71.08 42.8h3.32v3.32h-3.32zM81 42.8h3.32v3.32H81zM61.2 46.08h3.32v3.32H61.2z"/><path fill="var(--st2)" class="st2" d="M64.48 46.08h3.32v3.32h-3.32zM81 46.08h3.32v3.32H81zM54.6 49.4h3.32v3.32H54.6zM61.2 49.4h3.32v3.32H61.2zM67.8 49.4h3.32v3.32H67.8zM74.4 49.4h3.32v3.32H74.4zM81 49.4h3.32v3.32H81z"/><path fill="var(--st2)" class="st2" d="M54.6 52.68h3.32V56H54.6zM61.2 52.68h3.32V56H61.2zM67.8 52.68h3.32V56H67.8zM74.4 52.68h3.32V56H74.4zM81 52.68h3.32V56H81zM28.16 56h3.32v3.32h-3.32zM47.96 56h3.32v3.32h-3.32zM54.6 56h3.32v3.32H54.6zM64.48 56h3.32v3.32h-3.32zM67.8 56h3.32v3.32H67.8z"/><path fill="var(--st2)" class="st2" d="M71.08 56h3.32v3.32h-3.32zM74.4 56h3.32v3.32H74.4z"/><path fill="var(--st2)" class="st2" d="M77.68 56H81v3.32h-3.32zM84.32 56h3.32v3.32h-3.32z"/><path fill="var(--st2)" class="st2" d="M87.6 56h3.32v3.32H87.6zM97.52 56h3.32v3.32h-3.32z"/><path fill="var(--st2)" class="st2" d="M100.8 56h3.32v3.32h-3.32zM104.12 56h3.32v3.32h-3.32zM28.16 59.28h3.32v3.32h-3.32z"/><path fill="var(--st2)" class="st2" d="M31.48 59.28h3.32v3.32h-3.32z"/><path fill="var(--st2)" class="st2" d="M34.76 59.28h3.32v3.32h-3.32zM41.36 59.28h3.32v3.32h-3.32zM44.68 59.28H48v3.32h-3.32zM57.88 59.28h3.32v3.32h-3.32zM67.8 59.28h3.32v3.32H67.8z"/><path fill="var(--st2)" class="st2" d="M71.08 59.28h3.32v3.32h-3.32zM74.4 59.28h3.32v3.32H74.4z"/><path fill="var(--st2)" class="st2" d="M77.68 59.28H81v3.32h-3.32zM90.92 59.28h3.32v3.32h-3.32z"/><path fill="var(--st2)" class="st2" d="M94.2 59.28h3.32v3.32H94.2zM97.52 59.28h3.32v3.32h-3.32z"/><path fill="var(--st2)" class="st2" d="M100.8 59.28h3.32v3.32h-3.32zM104.12 59.28h3.32v3.32h-3.32zM31.48 62.56h3.32v3.32h-3.32z"/><path fill="var(--st2)" class="st2" d="M34.76 62.56h3.32v3.32h-3.32zM41.36 62.56h3.32v3.32h-3.32zM44.68 62.56H48v3.32h-3.32z"/><path fill="var(--st2)" class="st2" d="M47.96 62.56h3.32v3.32h-3.32zM54.6 62.56h3.32v3.32H54.6z"/><path fill="var(--st2)" class="st2" d="M57.88 62.56h3.32v3.32h-3.32zM64.48 62.56h3.32v3.32h-3.32zM67.8 62.56h3.32v3.32H67.8zM74.4 62.56h3.32v3.32H74.4z"/><path fill="var(--st2)" class="st2" d="M77.68 62.56H81v3.32h-3.32zM84.32 62.56h3.32v3.32h-3.32zM90.92 62.56h3.32v3.32h-3.32zM97.52 62.56h3.32v3.32h-3.32zM104.12 62.56h3.32v3.32h-3.32z"/><path fill="var(--st2)" class="st2" d="M107.4 62.56h3.32v3.32h-3.32zM41.36 65.92h3.32v3.32h-3.32zM54.6 65.92h3.32v3.32H54.6z"/><path fill="var(--st2)" class="st2" d="M57.88 65.92h3.32v3.32h-3.32zM61.2 65.92h3.32v3.32H61.2zM67.8 65.92h3.32v3.32H67.8zM77.68 65.92H81v3.32h-3.32zM90.92 65.92h3.32v3.32h-3.32zM97.52 65.92h3.32v3.32h-3.32zM107.4 65.92h3.32v3.32h-3.32zM28.16 69.16h3.32v3.32h-3.32z"/><path fill="var(--st2)" class="st2" d="M31.48 69.16h3.32v3.32h-3.32z"/><path fill="var(--st2)" class="st2" d="M34.76 69.16h3.32v3.32h-3.32zM38.08 69.16h3.32v3.32h-3.32zM47.96 69.16h3.32v3.32h-3.32zM51.28 69.16h3.32v3.32h-3.32zM54.6 69.16h3.32v3.32H54.6zM61.2 69.16h3.32v3.32H61.2zM67.8 69.16h3.32v3.32H67.8zM77.68 69.16H81v3.32h-3.32zM87.6 69.16h3.32v3.32H87.6zM90.92 69.16h3.32v3.32h-3.32zM107.4 69.16h3.32v3.32h-3.32zM28.16 72.48h3.32v3.32h-3.32zM34.76 72.48h3.32v3.32h-3.32zM41.36 72.48h3.32v3.32h-3.32zM67.8 72.48h3.32v3.32H67.8zM77.68 72.48H81v3.32h-3.32zM81 72.48h3.32v3.32H81zM84.32 72.48h3.32v3.32h-3.32zM90.92 72.48h3.32v3.32h-3.32zM104.12 72.48h3.32v3.32h-3.32z"/><path fill="var(--st2)" class="st2" d="M28.16 75.76h3.32v3.32h-3.32zM38.08 75.76h3.32v3.32h-3.32zM47.96 75.76h3.32v3.32h-3.32zM54.6 75.76h3.32v3.32H54.6z"/><path fill="var(--st2)" class="st2" d="M57.88 75.76h3.32v3.32h-3.32zM74.4 75.76h3.32v3.32H74.4z"/><path fill="var(--st2)" class="st2" d="M77.68 75.76H81v3.32h-3.32zM84.32 75.76h3.32v3.32h-3.32z"/><path fill="var(--st2)" class="st2" d="M87.6 75.76h3.32v3.32H87.6zM90.92 75.76h3.32v3.32h-3.32z"/><path fill="var(--st2)" class="st2" d="M94.2 75.76h3.32v3.32H94.2zM97.52 75.76h3.32v3.32h-3.32zM104.12 75.76h3.32v3.32h-3.32z"/><path fill="var(--st2)" class="st2" d="M107.4 75.76h3.32v3.32h-3.32zM28.16 79.12h3.32v3.32h-3.32zM34.76 79.12h3.32v3.32h-3.32zM38.08 79.12h3.32v3.32h-3.32z"/><path fill="var(--st2)" class="st2" d="M41.36 79.12h3.32v3.32h-3.32zM51.28 79.12h3.32v3.32h-3.32zM57.88 79.12h3.32v3.32h-3.32zM64.48 79.12h3.32v3.32h-3.32zM77.68 79.12H81v3.32h-3.32zM87.6 79.12h3.32v3.32H87.6zM94.2 79.12h3.32v3.32H94.2zM100.8 79.12h3.32v3.32h-3.32zM107.4 79.12h3.32v3.32h-3.32zM28.16 82.36h3.32v3.32h-3.32z"/><path fill="var(--st2)" class="st2" d="M38.08 82.36h3.32v3.32h-3.32z"/><path fill="var(--st2)" class="st2" d="M41.36 82.36h3.32v3.32h-3.32zM44.68 82.36H48v3.32h-3.32z"/><path fill="var(--st2)" class="st2" d="M47.96 82.36h3.32v3.32h-3.32zM51.28 82.36h3.32v3.32h-3.32zM61.2 82.36h3.32v3.32H61.2z"/><path fill="var(--st2)" class="st2" d="M64.48 82.36h3.32v3.32h-3.32zM67.8 82.36h3.32v3.32H67.8z"/><path fill="var(--st2)" class="st2" d="M71.08 82.36h3.32v3.32h-3.32zM74.4 82.36h3.32v3.32H74.4zM81 82.36h3.32v3.32H81zM84.32 82.36h3.32v3.32h-3.32z"/><path fill="var(--st2)" class="st2" d="M87.6 82.36h3.32v3.32H87.6zM90.92 82.36h3.32v3.32h-3.32z"/><path fill="var(--st2)" class="st2" d="M94.2 82.36h3.32v3.32H94.2zM100.8 82.36h3.32v3.32h-3.32zM54.6 85.68h3.32V89H54.6z"/><path fill="var(--st2)" class="st2" d="M57.88 85.68h3.32V89h-3.32zM64.48 85.68h3.32V89h-3.32zM67.8 85.68h3.32V89H67.8zM74.4 85.68h3.32V89H74.4zM81 85.68h3.32V89H81zM94.2 85.68h3.32V89H94.2zM100.8 85.68h3.32V89h-3.32z"/><path fill="var(--st2)" class="st2" d="M61.2 88.96h3.32v3.32H61.2z"/><path fill="var(--st2)" class="st2" d="M64.48 88.96h3.32v3.32h-3.32zM74.4 88.96h3.32v3.32H74.4zM81 88.96h3.32v3.32H81zM87.6 88.96h3.32v3.32H87.6zM94.2 88.96h3.32v3.32H94.2zM97.52 88.96h3.32v3.32h-3.32zM107.4 88.96h3.32v3.32h-3.32zM57.88 92.32h3.32v3.32h-3.32zM61.2 92.32h3.32v3.32H61.2zM81 92.32h3.32v3.32H81zM94.2 92.32h3.32v3.32H94.2z"/><path fill="var(--st2)" class="st2" d="M61.2 95.6h3.32v3.32H61.2zM71.08 95.6h3.32v3.32h-3.32zM77.68 95.6H81v3.32h-3.32zM81 95.6h3.32v3.32H81zM84.32 95.6h3.32v3.32h-3.32z"/><path fill="var(--st2)" class="st2" d="M87.6 95.6h3.32v3.32H87.6zM90.92 95.6h3.32v3.32h-3.32z"/><path fill="var(--st2)" class="st2" d="M94.2 95.6h3.32v3.32H94.2zM97.52 95.6h3.32v3.32h-3.32z"/><path fill="var(--st2)" class="st2" d="M100.8 95.6h3.32v3.32h-3.32zM61.2 98.88h3.32v3.32H61.2z"/><path fill="var(--st2)" class="st2" d="M64.48 98.88h3.32v3.32h-3.32zM71.08 98.88h3.32v3.32h-3.32zM74.4 98.88h3.32v3.32H74.4zM84.32 98.88h3.32v3.32h-3.32z"/><path fill="var(--st2)" class="st2" d="M87.6 98.88h3.32v3.32H87.6zM97.52 98.88h3.32v3.32h-3.32zM104.12 98.88h3.32v3.32h-3.32z"/><path fill="var(--st2)" class="st2" d="M107.4 98.88h3.32v3.32h-3.32zM61.2 102.24h3.32v3.32H61.2zM67.8 102.24h3.32v3.32H67.8z"/><path fill="var(--st2)" class="st2" d="M71.08 102.24h3.32v3.32h-3.32zM74.4 102.24h3.32v3.32H74.4z"/><path fill="var(--st2)" class="st2" d="M77.68 102.24H81v3.32h-3.32zM90.92 102.24h3.32v3.32h-3.32zM100.8 102.24h3.32v3.32h-3.32zM107.4 102.24h3.32v3.32h-3.32zM57.88 105.52h3.32v3.32h-3.32zM64.48 105.52h3.32v3.32h-3.32zM67.8 105.52h3.32v3.32H67.8z"/><path fill="var(--st2)" class="st2" d="M77.68 105.52H81v3.32h-3.32zM81 105.52h3.32v3.32H81zM84.32 105.52h3.32v3.32h-3.32z"/><path fill="var(--st2)" class="st2" d="M87.6 105.52h3.32v3.32H87.6zM90.92 105.52h3.32v3.32h-3.32z"/><path fill="var(--st2)" class="st2" d="M94.2 105.52h3.32v3.32H94.2zM107.4 105.52h3.32v3.32h-3.32zM54.6 108.84h3.32v3.32H54.6zM61.2 108.84h3.32v3.32H61.2z"/><path fill="var(--st2)" class="st2" d="M64.48 108.84h3.32v3.32h-3.32zM81 108.84h3.32v3.32H81zM87.6 108.84h3.32v3.32H87.6zM97.52 108.84h3.32v3.32h-3.32zM107.4 108.84h3.32v3.32h-3.32z"/><path fill="var(--st3)" class="st2" d="M31.84 33.24h16.24v16.24H31.84z"/><path fill="var(--st2)" class="st2" d="M47.8 29.6H28.2V52.56H51.16V29.6H47.8zm0 19.6H31.56V32.96H47.8V49.2z"/><path fill="var(--st3)" class="st2" d="M91.32 33.24h16.24v16.24H91.32z"/><path fill="var(--st2)" class="st2" d="M107.28 29.6H87.68V52.56H110.64V29.6h-3.36zm0 19.6H91.04V32.96h16.24V49.2z"/><path fill="var(--st3)" class="st2" d="M31.84 92.44h16.24v16.24H31.84z"/><path fill="var(--st2)" class="st2" d="M47.8 89.08H28.2V112.04H51.16V89.08H47.8zm0 19.6H31.56V92.44H47.8v16.24z"/><g><path fill="var(--st2)" class="st2" d="M34.84 36.28h9.96v9.96h-9.96z"/></g><g><path fill="var(--st2)" class="st2" d="M94.24 36.28h9.96v9.96h-9.96z"/></g><g><path fill="var(--st2)" class="st2" d="M34.84 95.56h9.96v9.96h-9.96z"/></g></g></svg>