<svg xmlns="http://www.w3.org/2000/svg" viewBox="0 0 404.556 404.556" width="512" height="512"><path d="M300.903 144.956l-53.28-136c-2.961-7.247-11.17-10.8-18.48-8l-136 53.28c-7.312 2.894-10.893 11.168-8 18.48l53.68 136c2.894 7.312 11.168 10.893 18.48 8l135.6-53.28c7.312-2.894 10.893-11.168 8-18.48zm-147.84 56.16l-52-132.32 132.32-52.08 52 132.4-132.32 52zM169.543 230.316H23.863c-7.865 0-14.24 6.375-14.24 14.24v145.76c0 7.865 6.375 14.24 14.24 14.24h145.68c7.865 0 14.24-6.375 14.24-14.24v-145.76c0-7.865-6.376-14.24-14.24-14.24zm-1.76 158.16H25.623v-142.16h142.16v142.16zM384.663 229.516l-140.8-37.44c-7.677-1.873-15.439 2.755-17.44 10.4l-37.44 140.8c-2.034 7.597 2.476 15.404 10.073 17.438l.007.002 140.8 37.44c7.597 2.034 15.404-2.476 17.438-10.073l.002-.007 37.12-141.12c2.057-7.503-2.289-15.269-9.76-17.44zm-42.32 152l-137.44-36.08 36.56-137.36 137.36 36.56-36.48 136.88z" fill="#434a53"/><path d="M240.823 124.636a26.965 26.965 0 0 0-5.68-7.36l-40-42.16-4.72-5.12a23.983 23.983 0 0 0-3.92-3.28 11.205 11.205 0 0 0-4.8-1.84 13.52 13.52 0 0 0-10.88 4.32 11.113 11.113 0 0 0-2.24 4.64c-.406 2-.594 4.039-.56 6.08V144.156c.16 2.4.293 4.24.4 5.52a11.94 11.94 0 0 0 .72 3.52 7.122 7.122 0 0 0 4.24 4c1.948.8 4.132.8 6.08 0a6.32 6.32 0 0 0 4.24-4c.6-3.081.815-6.226.64-9.36v-11.44l31.6-12.4 7.52 8 3.44 3.44a17.67 17.67 0 0 0 3.28 2.72c.9.542 1.913.87 2.96.96a7.53 7.53 0 0 0 3.44-.56 8.003 8.003 0 0 0 4.24-4.08 7.44 7.44 0 0 0 0-5.84zm-57.2-5.84l-1.12-36.32 24.32 27.2-23.2 9.12zM116.663 311.196a19.2 19.2 0 0 0 12.48-18.32 20 20 0 0 0-1.2-6.88 19.763 19.763 0 0 0-3.44-6 20.482 20.482 0 0 0-5.2-4.48 22.092 22.092 0 0 0-8-2.88 63.206 63.206 0 0 0-10.32-.72h-26.56a10.722 10.722 0 0 0-8 2.4 10.959 10.959 0 0 0-2.4 8v62.72a11.119 11.119 0 0 0 2.32 8 10.56 10.56 0 0 0 8.08 2.48h25.52a89.697 89.697 0 0 0 11.12-1.04 34.43 34.43 0 0 0 8.8-2.24 21.523 21.523 0 0 0 9.68-8 22.883 22.883 0 0 0 3.6-12.64c.184-9.898-6.765-18.499-16.48-20.4zm-35.6-26.4h13.36c4.654-.24 9.308.467 13.68 2.08a7.999 7.999 0 0 1 4.48 8 10.328 10.328 0 0 1-1.44 5.36 9.279 9.279 0 0 1-5.28 4.56 31.048 31.048 0 0 1-9.76 1.2h-15.44l.4-21.2zm34.88 45.68c0 8.213-5.707 12.32-17.12 12.32h-18.16l.4-24.32h17.36a24.877 24.877 0 0 1 13.28 2.88 10.082 10.082 0 0 1 4.24 9.12zM331.943 271.436a32.56 32.56 0 0 0-9.52-12.96 38.96 38.96 0 0 0-16-8 41.433 41.433 0 0 0-16-1.2 36.636 36.636 0 0 0-14.56 5.04 38.64 38.64 0 0 0-11.6 11.04 52.01 52.01 0 0 0-7.44 16.64 56.7 56.7 0 0 0-1.92 11.6c-.206 3.669.035 7.35.72 10.96a41.447 41.447 0 0 0 3.2 9.92 33.272 33.272 0 0 0 6.08 8.8 33.846 33.846 0 0 0 8.48 6.32 53.172 53.172 0 0 0 11.28 4.32 38.566 38.566 0 0 0 15.44 1.2 31.449 31.449 0 0 0 12.24-4.64 31.027 31.027 0 0 0 8-7.2 22.08 22.08 0 0 0 4.08-8 6.96 6.96 0 0 0-.72-5.6 7.12 7.12 0 0 0-4.48-3.36 6.08 6.08 0 0 0-5.52.72 18.067 18.067 0 0 0-3.92 4.48 21.92 21.92 0 0 1-10.08 8 20.646 20.646 0 0 1-12.8 0 21.362 21.362 0 0 1-10.16-5.04 20.398 20.398 0 0 1-4.96-11.28 41.681 41.681 0 0 1 1.52-16 35.92 35.92 0 0 1 11.68-20.72 20 20 0 0 1 18.08-3.36c3.791.87 7.225 2.88 9.84 5.76a25.527 25.527 0 0 1 5.12 10.96 21.36 21.36 0 0 0 2.16 6.08 6.799 6.799 0 0 0 4.32 2.72 6.48 6.48 0 0 0 5.36-.88 7.286 7.286 0 0 0 3.28-4.4 19.76 19.76 0 0 0-1.2-11.92z" fill="#434a53"/></svg>