<svg xmlns="http://www.w3.org/2000/svg" height="512" viewBox="-87 0 512 512" width="512"><path d="M234.047 334.184c18.047-18.047 18.047-47.414 0-65.461-18.496-18.496-48.79-18.13-66.79 1.398-18.066-16.203-46.003-15.82-63.585 1.766-18.09 18.09-18.094 47.367-.004 65.46 18.473 18.47 48.773 18.169 66.781-1.41 8.5 7.63 19.36 11.801 30.867 11.801 12.368 0 23.989-4.812 32.73-13.554zm-119.77-7.446c-10.02-10.02-12.218-25.633-4.664-38.304l42.969 42.968c-11.352 6.973-27.484 6.16-38.305-4.664zm42.621-12.23l-36.68-36.68c12.02-7.289 28.177-5.816 38.688 5.059-4.476 10.215-4.969 21.488-2.008 31.62zm66.543-35.18c10.368 10.371 11.918 26.27 4.657 38.297l-42.961-42.96c11.945-7.243 27.847-5.794 38.304 4.663zm-48.91 5.945l42.969 42.965c-28.332 17.137-59.535-15.593-42.969-42.965zm0 0" fill="#434a53"/><path d="M186.36 426.648h79.48c8.617 0 15.629-7.011 15.629-15.628v-215c0-8.618-7.012-15.625-15.63-15.625H71.88c-8.617 0-15.629 7.007-15.629 15.625v215c0 8.617 7.012 15.628 15.629 15.628h79.48c4.141 0 7.5-3.359 7.5-7.5 0-4.14-3.359-7.5-7.5-7.5H71.88a.628.628 0 0 1-.629-.628v-215c0-.344.281-.625.629-.625h193.96c.345 0 .626.28.626.625v215a.628.628 0 0 1-.625.628h-79.48a7.5 7.5 0 1 0 0 15zm0 0" fill="#434a53"/><path d="M330.219 296.848c4.14 0 7.5-3.36 7.5-7.5V149.477c0-24.454-19.895-44.348-44.348-44.348H281.47V83.906h3.05c9.563 0 17.348-7.781 17.348-17.347V17.348C301.867 7.78 294.082 0 284.516 0H53.199c-9.566 0-17.347 7.781-17.347 17.348v49.21c0 9.563 7.78 17.348 17.347 17.348h3.051v21.223H44.348C19.895 105.129 0 125.023 0 149.477v318.175C0 492.148 19.965 512 44.348 512H293.37c24.324 0 44.348-19.797 44.348-44.348v-143.3a7.503 7.503 0 1 0-15.004 0v143.3c0 1.106-.067 2.2-.184 3.274H15.187a29.285 29.285 0 0 1-.187-3.274V149.477c0-16.18 13.164-29.344 29.348-29.344H293.37c16.184 0 29.344 13.164 29.344 29.344v139.87c0 4.141 3.36 7.5 7.504 7.5zm-13.961 189.078C310.57 492.988 302.043 497 293.37 497H44.348c-8.653 0-17.188-3.996-22.891-11.074zM176.359 15h47.754v53.906H176.36zm-62.754 0h47.754v53.906h-47.754zM53.2 68.906a2.352 2.352 0 0 1-2.347-2.347V17.348A2.352 2.352 0 0 1 53.199 15h45.406v53.906H53.2zm213.266 36.223H71.25V83.906h195.215zm-27.352-36.223V15h45.403a2.353 2.353 0 0 1 2.351 2.348v49.21a2.353 2.353 0 0 1-2.351 2.348h-45.403zm0 0" fill="#434a53"/></svg>