<svg id="archive" xmlns="http://www.w3.org/2000/svg" viewBox="0 0 512 512"><path class="st0" d="M332.8 328.2c-1.5 0-3-.4-4.3-1.2L4.3 139.3C1.6 137.8 0 135 0 132s1.6-5.8 4.1-7.4L174.8 22.2c2.7-1.6 6-1.6 8.7-.1l324.3 187.7c2.6 1.5 4.2 4.3 4.3 7.3 0 3-1.6 5.8-4.1 7.4L337.2 327c-1.4.8-2.9 1.2-4.4 1.2zM25.3 131.8l307.4 178 153.9-92.4-307.4-178-153.9 92.4z"/><path class="st0" d="M179.2 328.2c-1.5 0-3-.4-4.4-1.2L4.1 224.6C1.5 223 0 220.2 0 217.2s1.6-5.8 4.3-7.3L328.5 22.2c2.7-1.6 6-1.5 8.7.1l170.7 102.4c2.6 1.6 4.2 4.4 4.1 7.4 0 3-1.6 5.8-4.3 7.3L183.5 327.1c-1.3.7-2.8 1.1-4.3 1.1zM25.3 217.4l153.9 92.4 307.4-178-153.9-92.4-307.4 178z"/><path class="st0" d="M256 490.3c-1.5 0-3-.4-4.3-1.2-2.6-1.5-4.2-4.3-4.2-7.4V275.2c0-3 1.6-5.9 4.3-7.4 2.6-1.5 5.9-1.5 8.5 0l72.4 41.9 98.1-58.9c2.6-1.6 5.9-1.6 8.6-.1 2.7 1.5 4.3 4.4 4.3 7.4v121.2c0 3.1-1.6 5.9-4.3 7.4L260.2 489.2c-1.3.8-2.7 1.1-4.2 1.1zm8.5-200.3v177.1l162.1-92.6V273.3L337.2 327c-2.7 1.6-6 1.6-8.7.1l-64-37.1z"/><path class="st0" d="M256 490.3c-1.5 0-3-.4-4.4-1.2L80.9 386.7c-2.6-1.5-4.1-4.3-4.1-7.3V263.3c0-3.1 1.7-5.9 4.3-7.4 2.7-1.5 6-1.5 8.6.1l89.6 53.7 72.4-41.9c2.6-1.5 5.9-1.5 8.5 0 2.6 1.5 4.3 4.3 4.3 7.4v206.6c0 3.1-1.7 5.9-4.3 7.4-1.3.8-2.8 1.1-4.2 1.1zM93.9 374.6l153.6 92.2V290l-64 37c-2.7 1.6-6 1.5-8.7-.1l-80.9-48.6v96.3z"/></svg>