<svg xmlns="http://www.w3.org/2000/svg" viewBox="0 0 512.001 512.001" width="512" height="512"><g fill="#434a53"><path d="M155.371 146.531c16.652 0 30.199-13.547 30.199-30.199 0-16.653-13.547-30.2-30.199-30.2s-30.199 13.547-30.199 30.2c0 16.652 13.547 30.199 30.199 30.199zm0-45.401c8.382 0 15.201 6.819 15.201 15.202 0 8.382-6.819 15.201-15.201 15.201s-15.201-6.819-15.201-15.201 6.819-15.202 15.201-15.202zM91.72 216.822c20.094 0 36.442-16.348 36.442-36.442s-16.349-36.442-36.442-36.442c-20.094 0-36.442 16.348-36.442 36.442s16.348 36.442 36.442 36.442zm0-57.886c11.824 0 21.444 9.62 21.444 21.444s-9.62 21.444-21.444 21.444-21.444-9.62-21.444-21.444 9.62-21.444 21.444-21.444zM154.592 296.409c-20.093 0-36.442 16.349-36.442 36.442s16.349 36.442 36.442 36.442 36.442-16.348 36.442-36.442c-.001-20.094-16.349-36.442-36.442-36.442zm0 57.887c-11.824 0-21.444-9.62-21.444-21.444s9.62-21.444 21.444-21.444 21.444 9.62 21.444 21.444-9.62 21.444-21.444 21.444zM84.622 233.803c-20.298 0-36.812 16.514-36.812 36.812s16.515 36.812 36.812 36.812c20.297 0 36.812-16.515 36.812-36.812.001-20.298-16.514-36.812-36.812-36.812zm0 58.627c-12.028 0-21.814-9.786-21.814-21.814s9.786-21.814 21.814-21.814 21.814 9.786 21.814 21.814c.001 12.027-9.785 21.814-21.814 21.814z"/><path d="M504.594 135.603c-14.819-14.819-35.377-4.139-44.182 3.578l-85.544 75.057c-5.193-33.216-21.952-40.721-36.007-40.721-16.376 0-32.342 10.782-36.91 14.135l-30.729 23.057c-17.023 12.775-41.274 7.964-52.234-10.206-9.517-15.785-5.555-36.046 9.214-47.128l30.792-23.106c44.382-34.053 31.339-79.395-49.511-89.033C111.676 29.461 16.685 98.106 1.921 201.613c-15.267 107.048 62.254 203.853 168.544 213.903-3.904 15.636-3.036 32.165 3.17 47.015a7.496 7.496 0 0 0 4.027 4.027c45.813 19.146 104.385-14.083 100.842-60.475 2.246-.395-.816 1.352 44.559-29.343 15.649 7.38 33.302-9.163 27.296-25.255L456.72 230.267a7.499 7.499 0 0 0-11.273-9.891l-104.579 119.19-40.239-40.238 169.64-148.842c.151-.129 15.176-12.818 23.719-4.276 8.54 8.54-4.149 23.571-4.246 23.685l-28.24 32.185a7.499 7.499 0 0 0 11.273 9.891l28.248-32.194c7.703-8.809 18.364-29.377 3.571-44.174zM251.962 437.659c-17.468 17.47-43.251 24.112-65.606 16.184-11.585-32.771 10.609-77.342 43.844-77.342 9.15 0 17.617 3.426 23.844 9.653 13.625 13.626 12.691 36.732-2.082 51.505zm26.169-48.627l-26.966-26.968 22.445-33.18 37.701 37.703-33.18 22.445zm58.441-30.921c0 1.961-1.181 2.813-2.663 4.294-1.486 1.488-4.08 1.488-5.568-.002l-50.55-50.551a3.942 3.942 0 0 1 0-5.57l1.506-1.506c1.488-1.491 4.082-1.489 5.57 0 54.782 54.781 51.705 50.986 51.705 53.335zm-47.846-68.294c-15.893-5.937-32.645 11.633-25.281 27.324-29.797 44.051-28.902 42.084-29.339 44.509-26.251-2.005-47.492 15.597-58.548 39.253C75.87 393.586 2.544 303.464 16.77 203.731c12.817-89.869 91.397-151.7 177.415-148.606 39.368 1.362 72.092 15.595 74.825 31.818 2.428 14.405-16.932 29.727-19.082 31.378L219.2 141.379c-24.205 18.164-27.316 52.953-6.827 75.169 17.208 18.656 46.494 22.186 67.851 6.157l30.664-23.009c7.029-5.158 18.573-11.181 27.974-11.181 13.088 0 20.572 12.705 22.27 37.775l-72.406 63.527z"/></g></svg>