<svg id="congress" xmlns="http://www.w3.org/2000/svg" viewBox="0 0 512 512"><path d="M503.5 349.9h-34.1V256c0-2.3-.9-4.4-2.5-6l-51.2-51.2-12.1 12.1 48.7 48.7v90.3H384v-128c0-39.3-29.6-71.7-67.7-76.2 15.5-15.5 25-36.8 25-60.3C341.3 38.3 303.1 0 256 0s-85.3 38.3-85.3 85.3c0 24.2 10.1 46 26.4 61.5-34.5 7.5-60.5 38.3-60.5 75v128H68.3v-90.3l48.7-48.7-12.1-12.1L53.7 250c-1.6 1.6-2.5 3.8-2.5 6v93.9H8.5c-4.7 0-8.5 3.8-8.5 8.5v102.4c0 4.7 3.8 8.5 8.5 8.5h145.1v34.1c0 4.7 3.8 8.5 8.5 8.5h187.7c4.7 0 8.5-3.8 8.5-8.5v-34.1h145.1c4.7 0 8.5-3.8 8.5-8.5V358.4c.1-4.7-3.7-8.5-8.4-8.5zM187.7 85.3c0-37.6 30.6-68.3 68.3-68.3s68.3 30.6 68.3 68.3c0 26.6-15.4 49.7-37.6 60.9-2.1 1-4.2 2-6.4 2.8-.4.2-.8.3-1.3.5-2.1.8-4.2 1.4-6.3 1.9-.4.1-.8.2-1.1.3-2.4.6-4.8 1-7.2 1.3-.1 0-.2 0-.3.1-5.3.6-10.6.6-15.9 0-.1 0-.2 0-.3-.1-2.4-.3-4.8-.7-7.2-1.3-.4-.1-.8-.2-1.1-.3-2.1-.5-4.3-1.2-6.3-1.9-.4-.2-.8-.3-1.3-.5-2.2-.8-4.3-1.8-6.4-2.8-22.5-11.2-37.9-34.2-37.9-60.9zm105.7 76.8L256 236.9l-37.4-74.8h.3c.3.2.7.3 1 .4 2.2 1 4.4 1.9 6.7 2.8.6.2 1.3.5 1.9.7 2.4.8 4.9 1.5 7.4 2.1.5.1.9.3 1.4.4 6 1.3 12.2 2.1 18.6 2.1 6.4 0 12.6-.8 18.6-2.1.5-.1.9-.2 1.4-.4 2.5-.6 5-1.3 7.4-2.1.7-.2 1.3-.5 1.9-.7 2.3-.8 4.5-1.8 6.7-2.8.3-.2.7-.3 1-.4h.5zm-139.8 59.8c0-28.4 20-52.3 46.7-58.2l48.1 96.2c1.4 2.9 4.4 4.7 7.6 4.7 3.2 0 6.2-1.8 7.6-4.7l48.7-97.4c30.5 2.6 54.6 28.3 54.6 59.5v128H153.6V221.9zm341.3 230.4h-145c-4.7 0-8.5 3.8-8.5 8.5v34.1H170.7v-34.1c0-4.7-3.8-8.5-8.5-8.5H17.1V367H495v85.3z"/><path class="st0" d="M213.3 384h17.1v17.1h-17.1zM247.5 384h17.1v17.1h-17.1zM281.6 384h17.1v17.1h-17.1zM247.5 290.1h17.1v17.1h-17.1z"/></svg>