<svg xmlns="http://www.w3.org/2000/svg" width="512" height="512"><g fill="#434a53"><path d="M468.884 439.242V180.547a8.082 8.082 0 0 0-8.084-8.084 8.083 8.083 0 0 0-8.084 8.084v258.695a8.083 8.083 0 0 0 8.084 8.084 8.082 8.082 0 0 0 8.084-8.084zM185.937 388.042h-75.453c-16.345 0-29.642 13.298-29.642 29.642v64.674c0 4.848 1.171 9.429 3.242 13.474H45.811a8.084 8.084 0 0 0-8.084 8.084A8.084 8.084 0 0 0 45.811 512h140.126c16.345 0 29.642-13.298 29.642-29.642v-64.674c0-16.344-13.297-29.642-29.642-29.642zm13.474 94.316c0 7.43-6.044 13.474-13.474 13.474h-75.453c-7.43 0-13.474-6.044-13.474-13.474v-35.032h83.537a8.083 8.083 0 0 0 8.084-8.084 8.084 8.084 0 0 0-8.084-8.084H97.011v-13.474c0-7.43 6.044-13.474 13.474-13.474h75.453c7.43 0 13.474 6.044 13.474 13.474v64.674zM18.863 495.832H8.084A8.084 8.084 0 0 0 0 503.916 8.084 8.084 0 0 0 8.084 512h10.779a8.083 8.083 0 0 0 8.084-8.084 8.083 8.083 0 0 0-8.084-8.084z"/><path d="M439.242 97.011h-10.779V29.642C428.463 13.298 415.165 0 398.821 0h-37.726c-16.344 0-29.642 13.298-29.642 29.642V97.01h-10.779c-35.683 0-65.858 25.504-71.752 60.642a8.085 8.085 0 0 0 15.947 2.675c4.582-27.32 28.052-47.149 55.806-47.149h118.568c31.203 0 56.589 25.387 56.589 56.589v312.589c0 7.43-6.044 13.474-13.474 13.474H353.01a8.083 8.083 0 0 0-8.084 8.084 8.082 8.082 0 0 0 8.084 8.084h129.347C498.702 512 512 498.702 512 482.358v-312.59c0-40.119-32.639-72.757-72.758-72.757zm-26.947 0h-64.674V29.642c0-7.43 6.044-13.474 13.474-13.474h37.726c7.43 0 13.474 6.044 13.474 13.474v67.369z"/><path d="M285.642 312.589h-2.695v-99.705c0-16.344-13.298-29.642-29.642-29.642h-21.558c-16.345 0-29.642 13.298-29.642 29.642v99.705h-2.695c-28.231 0-51.2 22.969-51.2 51.2 0 4.466 3.62 8.084 8.084 8.084s8.084-3.618 8.084-8.084c0-19.317 15.716-35.032 35.032-35.032h86.232c19.317 0 35.032 15.715 35.032 35.032v118.568c0 7.43-6.044 13.474-13.474 13.474h-72.758a8.084 8.084 0 0 0-8.084 8.084 8.084 8.084 0 0 0 8.084 8.084H307.2c16.344 0 29.642-13.298 29.642-29.642V363.789c0-28.231-22.969-51.2-51.2-51.2zm-18.863 0h-48.505v-99.705c0-7.43 6.044-13.474 13.474-13.474h21.558c7.43 0 13.474 6.044 13.474 13.474v99.705z"/><path d="M296.421 460.8v-97.01a8.083 8.083 0 0 0-8.084-8.084 8.082 8.082 0 0 0-8.084 8.084v97.01a8.082 8.082 0 0 0 8.084 8.084 8.082 8.082 0 0 0 8.084-8.084z"/></g></svg>