<svg xmlns="http://www.w3.org/2000/svg" viewBox="0 0 496.004 496.004" width="512" height="512"><g fill="#434a53"><path d="M493.661 178.346l-80-80a8.001 8.001 0 0 0-4.224-2.208l-88-16a8 8 0 0 0-9.432 7.864 47.493 47.493 0 0 1-.68 7.584l-55.32-13.824v-2.56c21.645-4.418 35.61-25.547 31.192-47.192C282.779 10.365 261.65-3.6 240.005.818c-18.621 3.801-31.996 20.179-32 39.184h16c0-13.255 10.745-24 24-24s24 10.745 24 24-10.745 24-24 24a8 8 0 0 0-8 8v9.752l-55.32 13.832a47.493 47.493 0 0 1-.68-7.584 8 8 0 0 0-2.872-6.144 7.813 7.813 0 0 0-6.56-1.72l-88 16a8.001 8.001 0 0 0-4.224 2.208l-80 80a8 8 0 0 0 0 11.312l64 64a8 8 0 0 0 11.312 0l18.344-18.344v52.688h-56C17.98 287.938.074 305.742.01 327.767a39.876 39.876 0 0 0 16.243 32.235C-1.42 372.915-5.279 397.71 7.635 415.383a39.618 39.618 0 0 0 8.618 8.618c-17.739 13.054-21.537 38.018-8.483 55.757a39.885 39.885 0 0 0 32.235 16.243h288a8 8 0 0 0 5.656-2.344l64-64a7.925 7.925 0 0 0 2.272-5.656h.072V235.314l18.344 18.344a8 8 0 0 0 11.312 0l64-64a8 8 0 0 0 0-11.312zM248.005 96.242l58.176 14.544a65.272 65.272 0 0 1-58.176 32.216 65.272 65.272 0 0 1-58.176-32.216l58.176-14.544zm-232 231.76c0-13.255 10.745-24 24-24h176c13.255 0 24 10.745 24 24s-10.745 24-24 24h-176c-13.255 0-24-10.746-24-24zm0 64c0-13.255 10.745-24 24-24h176c13.255 0 24 10.745 24 24s-10.745 24-24 24h-176c-13.255 0-24-10.746-24-24zm200 88h-176c-13.255 0-24-10.745-24-24s10.745-24 24-24h176c13.255 0 24 10.745 24 24s-10.745 24-24 24zm120-11.312v-36.688h36.688l-36.688 36.688zm88-232l-50.344-50.344-11.312 11.312 21.656 21.656v196.688h-56a8 8 0 0 0-8 8v56h-72.208c13.315-17.25 10.126-42.027-7.123-55.343a37.764 37.764 0 0 0-.877-.657c17.673-12.913 21.532-37.708 8.619-55.382a39.6 39.6 0 0 0-8.619-8.618c17.74-13.054 21.538-38.018 8.483-55.757a39.882 39.882 0 0 0-32.275-16.243h-104v-68.688l21.656-21.656-11.312-11.312-50.344 50.344-52.688-52.688 72.576-72.576 76.8-13.96c5.232 34.688 38.8 61.536 79.296 61.536 40.496 0 74.064-26.848 79.296-61.536l76.8 13.96 72.608 72.576-52.688 52.688z"/><path d="M32.005 320.002h192v16h-192zM32.005 384.002h184v16h-184zM32.005 448.002h184v16h-184z"/></g></svg>