<svg id="handshake" xmlns="http://www.w3.org/2000/svg" viewBox="0 0 512 512"><path d="M504.5 304.2H446c-2 0-3.7-1.7-3.7-3.7V140.2c0-2 1.7-3.7 3.7-3.7h58.5c4.1 0 7.5-3.4 7.5-7.5s-3.4-7.5-7.5-7.5H446c-10.3 0-18.7 8.4-18.7 18.7v8.5h-36.9c-4.1 0-7.5 3.4-7.5 7.5s3.4 7.5 7.5 7.5h36.9v113.4h-34.6c-1.9 0-3.7.7-5.1 2L346.8 317l-50.7 47-37.9 35.2c-9.4 8.8-24.9 1.7-24.4-11.1.1-3.9 1.8-7.5 4.6-10.1 3-2.8 3.2-7.6.4-10.6s-7.6-3.2-10.6-.4l-9.5 8.9c-9.4 8.8-24.8 1.7-24.4-11.1.1-3.9 1.8-7.5 4.6-10.1 3-2.8 3.2-7.6.4-10.6s-7.6-3.2-10.6-.4L177.6 354c-9.4 8.8-24.9 1.8-24.4-11.1.1-3.9 1.8-7.5 4.6-10.1l3.9-3.7c3-2.8 3.2-7.6.4-10.6s-7.6-3.2-10.6-.4c-2.2 2-4.9 3.3-7.9 3.7-4.7.7-9.4-1-12.7-4.5-5.5-5.9-5.1-15.1.7-20.5l131.6-119.6 38.3 25.5c10.9 7.3 24.1 10 37 7.6s24.2-9.7 31.8-20.4l4.8-6.9c4.2-5.9 2.7-14.1-3.2-18.3l-99.4-69.3c-1.3-.9-2.8-1.3-4.3-1.3h-75.5c-5.7 0-11.2 1.7-15.9 5l-7.8 5.5-.1.1-5.3 3.7-30.4 21.5-5.2 3.7c-5.8 4.1-10.5 9.2-14.1 15h-29v-8.5c0-10.3-8.4-18.7-18.7-18.7H7.5c-4.1 0-7.5 3.4-7.5 7.5s3.4 7.5 7.5 7.5H66c2 0 3.7 1.7 3.7 3.7v160.4c0 2-1.7 3.7-3.7 3.7H7.5c-4.1 0-7.5 3.4-7.5 7.5s3.4 7.5 7.5 7.5H66c10.3 0 18.7-8.4 18.7-18.7V292h15.5c.6 0 1.1.5 1.2 1.1.3 6.7 1.2 26.4 14.4 28.5 1.1 2.1 2.5 4 4.2 5.8 5 5.3 11.7 8.6 18.9 9.3-.4 1.8-.6 3.6-.7 5.5-.3 7.9 2.5 15.4 7.9 21.1 5.4 5.8 12.7 9.1 20.5 9.4 4.6.2 9-.7 13.1-2.5 1 5.6 3.5 10.8 7.5 15 5.4 5.8 12.7 9.1 20.6 9.4 3.9.1 7.8-.5 11.4-1.8.9 5.9 3.5 11.4 7.6 15.8 5.4 5.8 12.7 9.1 20.6 9.4h1.1c7.5 0 14.6-2.8 20.1-7.9l37.9-35.2 41.2-38.2 48-44.6h31.7v8.5c0 10.3 8.4 18.7 18.7 18.7h58.5c4.1 0 7.5-3.4 7.5-7.5s-3.5-7.6-7.6-7.6zM116.4 292c-.6-8.4-7.6-15-16.1-15H84.8V163.6h22.8c-.2.8-.4 1.7-.5 2.5-.8 4.1 1.9 8 6 8.8.5.1.9.1 1.4.1 3.5 0 6.7-2.5 7.4-6.1.6-3.2 1.6-6.3 3-9.1.2-.3.3-.5.4-.8 2.7-5.2 6.5-9.7 11.4-13.1l10.3-7.2 28.6-20.2 10-7.1c2.1-1.5 4.6-2.3 7.2-2.3H266l95.9 66.8-3.8 5.4c-10.8 15.5-32.4 19.5-48.1 9l-43.5-28.9s-.1 0-.1-.1c0 0-.1 0-.1-.1-2.8-1.8-6.5-1.5-9 .8l-96 87.6-39.7 36.1c-2.2 1.9-3.9 4.1-5.2 6.3z"/></svg>