<svg id="mail" xmlns="http://www.w3.org/2000/svg" viewBox="0 0 512 512"><path d="M49.1 178.9c6.5 4.6 26 18.1 58.6 40.7s57.5 39.9 74.9 52.1c1.9 1.3 6 4.2 12.1 8.7 6.2 4.5 11.3 8.1 15.4 10.9 4.1 2.8 9 5.9 14.9 9.3 5.8 3.4 11.3 6 16.4 7.7 5.1 1.7 9.9 2.6 14.3 2.6h.6c4.4 0 9.1-.9 14.3-2.6 5.1-1.7 10.6-4.3 16.4-7.7 5.8-3.4 10.8-6.5 14.9-9.3 4.1-2.8 9.2-6.4 15.4-10.9 6.2-4.5 10.2-7.4 12.1-8.7 17.5-12.2 62.1-43.1 133.7-92.9 13.9-9.7 25.5-21.4 34.9-35.1 9.3-13.7 14-28.1 14-43.1 0-12.6-4.5-23.3-13.6-32.3-9-9-19.8-13.4-32.1-13.4H45.7c-14.7 0-26 5-33.9 14.9C4 79.6 0 92 0 106.9c0 12 5.2 25 15.7 39s21.6 25 33.4 33z"/><path d="M483.4 209.4C421 251.7 373.5 284.6 341.1 308c-10.9 8-19.7 14.2-26.4 18.7-6.8 4.5-15.8 9-27 13.7-11.2 4.7-21.7 7-31.4 7h-.6c-9.7 0-20.2-2.3-31.4-7s-20.2-9.2-27-13.7c-6.8-4.5-15.6-10.7-26.4-18.7-25.7-18.9-73-51.7-142-98.6C18 202.2 8.4 193.9 0 184.6v226.9c0 12.6 4.5 23.3 13.4 32.3 9 9 19.7 13.4 32.3 13.4h420.6c12.6 0 23.3-4.5 32.3-13.4 9-9 13.4-19.7 13.4-32.3V184.6c-8.2 9.1-17.7 17.4-28.6 24.8z"/></svg>