<svg xmlns="http://www.w3.org/2000/svg" viewBox="0 0 512.001 512" width="512" height="512"><path d="M131.219 216.836c2.633 0 5.21-1.07 7.07-2.93a10.087 10.087 0 0 0 2.93-7.07c0-2.633-1.07-5.211-2.93-7.07a10.073 10.073 0 0 0-7.07-2.93c-2.64 0-5.207 1.07-7.07 2.93a10.073 10.073 0 0 0-2.93 7.07c0 2.629 1.07 5.207 2.93 7.07a10.087 10.087 0 0 0 7.07 2.93zm0 0M274.469 203.594a10.091 10.091 0 0 0-7.078-2.93 10.08 10.08 0 0 0-7.07 2.93 10.08 10.08 0 0 0-2.93 7.07c0 2.629 1.07 5.211 2.93 7.07a10.08 10.08 0 0 0 7.07 2.93c2.64 0 5.21-1.07 7.078-2.93a10.051 10.051 0 0 0 2.922-7.07c0-2.629-1.063-5.21-2.922-7.07zm0 0M302.398 185.664c2.633 0 5.211-1.07 7.07-2.93s2.923-4.441 2.923-7.07c0-2.629-1.063-5.21-2.922-7.07s-4.438-2.93-7.07-2.93c-2.637 0-5.22 1.07-7.079 2.93a10.08 10.08 0 0 0-2.93 7.07c0 2.629 1.07 5.211 2.93 7.07a10.084 10.084 0 0 0 7.078 2.93zm0 0" fill="#434a53"/><path d="M482 245.996h-27.902l49.117-49.117c5.664-5.668 8.785-13.203 8.785-21.215s-3.121-15.547-8.785-21.21l-44.55-44.552c-3.903-3.902-10.235-3.902-14.142 0-5.664 5.668-13.199 8.79-21.21 8.79-8.016 0-15.547-3.122-21.215-8.79-5.668-5.664-8.786-13.199-8.786-21.21 0-8.016 3.122-15.547 8.786-21.215a10 10 0 0 0 0-14.141L357.55 8.789C351.883 3.121 344.35 0 336.336 0c-8.012 0-15.547 3.121-21.211 8.79L149.961 173.95c-3.906 3.902-3.906 10.234 0 14.14s10.238 3.906 14.144 0l165.16-165.16a9.928 9.928 0 0 1 7.07-2.93 9.92 9.92 0 0 1 7.071 2.93l38.184 38.18c-5.387 8.109-8.278 17.624-8.278 27.581 0 13.356 5.2 25.91 14.645 35.356 9.445 9.441 22 14.644 35.356 14.644 9.957 0 19.468-2.89 27.582-8.277l38.18 38.18c3.898 3.898 3.898 10.242 0 14.14l-63.262 63.262h-43.84l32.855-32.855c3.902-3.907 3.902-10.239 0-14.141L313.004 97.176c-3.906-3.906-10.238-3.906-14.145 0l-148.82 148.82H30c-16.543 0-30 13.457-30 30v63c0 5.52 4.477 10 10 10 16.543 0 30 13.457 30 30 0 16.54-13.457 30-30 30-5.523 0-10 4.477-10 10v63c0 16.54 13.457 30 30 30h452c16.543 0 30-13.46 30-30v-63c0-5.523-4.477-10-10-10-16.543 0-30-13.46-30-30 0-16.543 13.457-30 30-30 5.523 0 10-4.48 10-10v-63c0-16.543-13.457-30-30-30zm-176.07-127.61l87.683 87.684-39.925 39.926H314.09l29.316-29.32c3.906-3.903 3.906-10.235 0-14.14-3.902-3.907-10.234-3.907-14.14 0l-43.461 43.456h-107.48zM492 330c-22.793 4.645-40 24.848-40 48.996 0 24.145 17.207 44.348 40 48.996v54.004c0 5.512-4.484 10-10 10H30c-5.516 0-10-4.488-10-10v-54.004c22.793-4.648 40-24.851 40-48.996 0-24.148-17.207-44.348-40-48.996v-54.004c0-5.516 4.484-10 10-10h452c5.516 0 10 4.484 10 10zm0 0" fill="#434a53"/><path d="M213.57 362.066a10.087 10.087 0 0 0 2.93-7.07c0-2.633-1.07-5.21-2.93-7.07-1.86-1.86-4.441-2.93-7.07-2.93s-5.21 1.07-7.07 2.93a10.073 10.073 0 0 0-2.93 7.07c0 2.629 1.07 5.207 2.93 7.07 1.86 1.86 4.441 2.93 7.07 2.93s5.21-1.07 7.07-2.93zm0 0M312.57 362.066a10.087 10.087 0 0 0 2.93-7.07c0-2.633-1.07-5.21-2.93-7.07-1.86-1.86-4.441-2.93-7.07-2.93s-5.21 1.07-7.07 2.93a10.073 10.073 0 0 0-2.93 7.07c0 2.629 1.07 5.207 2.93 7.07 1.86 1.86 4.441 2.93 7.07 2.93s5.21-1.07 7.07-2.93zm0 0M263.07 362.066a10.087 10.087 0 0 0 2.93-7.07c0-2.633-1.07-5.21-2.93-7.07-1.86-1.86-4.441-2.93-7.07-2.93s-5.21 1.07-7.07 2.93a10.073 10.073 0 0 0-2.93 7.07c0 2.629 1.07 5.207 2.93 7.07 1.86 1.86 4.441 2.93 7.07 2.93s5.21-1.07 7.07-2.93zm0 0M157 364.996c2.629 0 5.21-1.07 7.07-2.93a10.087 10.087 0 0 0 2.93-7.07c0-2.633-1.07-5.21-2.93-7.07-1.86-1.86-4.441-2.93-7.07-2.93s-5.21 1.07-7.07 2.93a10.073 10.073 0 0 0-2.93 7.07c0 2.629 1.07 5.207 2.93 7.07a10.08 10.08 0 0 0 7.07 2.93zm0 0M362.07 362.066a10.087 10.087 0 0 0 2.93-7.07c0-2.633-1.07-5.21-2.93-7.07-1.86-1.86-4.441-2.93-7.07-2.93s-5.21 1.07-7.07 2.93a10.073 10.073 0 0 0-2.93 7.07c0 2.629 1.07 5.207 2.93 7.07 1.86 1.86 4.441 2.93 7.07 2.93s5.21-1.07 7.07-2.93zm0 0M157 412.996h198c5.523 0 10-4.48 10-10 0-5.523-4.477-10-10-10H157c-5.523 0-10 4.477-10 10 0 5.52 4.477 10 10 10zm0 0M193.32 440.996c-2.629 0-5.21 1.07-7.07 2.93s-2.93 4.437-2.93 7.07c0 2.629 1.07 5.207 2.93 7.07a10.08 10.08 0 0 0 7.07 2.93c2.64 0 5.211-1.07 7.07-2.93a10.037 10.037 0 0 0 2.93-7.07c0-2.633-1.058-5.21-2.93-7.07a10.059 10.059 0 0 0-7.07-2.93zm0 0" fill="#434a53"/><path d="M408 296.996H104c-5.523 0-10 4.477-10 10v144c0 5.52 4.477 10 10 10h41.656c5.524 0 10-4.48 10-10 0-5.523-4.476-10-10-10H114v-124h284v124H235.656c-5.523 0-10 4.477-10 10 0 5.52 4.477 10 10 10H408c5.523 0 10-4.48 10-10v-144c0-5.523-4.477-10-10-10zm0 0" fill="#434a53"/></svg>