<svg id="mutual_interest" xmlns="http://www.w3.org/2000/svg" viewBox="0 0 512 512"><path class="st0" d="M509.5 497.4l-57.2-57.2V281.6c0-23.5-19.1-42.7-42.7-42.7H298.7v-51.2h179.2c3.4 0 6.6-2.1 7.9-5.3 1.3-3.2.6-6.9-1.9-9.3l-48.7-48.7V42.7c0-23.5-19.1-42.7-42.7-42.7H238.9c-23.5 0-42.7 19.1-42.7 42.7H85.3c-23.5 0-42.7 19.1-42.7 42.7v167.1L2.5 292.6C.1 295-.7 298.7.6 301.9c1.3 3.2 4.4 5.3 7.9 5.3H128v162.1c0 23.5 19.1 42.7 42.7 42.7h332.8c3.4 0 6.6-2.1 7.9-5.3 1.3-3.2.5-6.8-1.9-9.3zM238.9 17.1h153.6c14.1 0 25.6 11.5 25.6 25.6V128c0 2.3.9 4.4 2.5 6l36.6 36.6H298.7V85.3c0-23.5-19.1-42.7-42.7-42.7h-42.7c0-14 11.5-25.5 25.6-25.5zM128 281.6v8.5H29.1L57.2 262c1.6-1.6 2.5-3.8 2.5-6V85.3c0-14.1 11.5-25.6 25.6-25.6H256c14.1 0 25.6 11.5 25.6 25.6v153.6H170.7c-23.6 0-42.7 19.2-42.7 42.7zm42.7 213.3c-14.1 0-25.6-11.5-25.6-25.6V281.6c0-14.1 11.5-25.6 25.6-25.6h238.9c14.1 0 25.6 11.5 25.6 25.6v162.1c0 2.3.9 4.4 2.5 6l45.2 45.2H170.7z"/></svg>