<svg id="register" xmlns="http://www.w3.org/2000/svg" viewBox="0 0 310 310"><path d="M300.606 159.727l-45.333-45.333c-5.857-5.858-15.355-5.858-21.213 0l-9.06 9.06V15c0-8.284-6.716-15-15-15H20C11.716 0 5 6.716 5 15v240.002c0 8.284 6.716 15 15 15h85V295c0 8.284 6.716 15 15 15h45.333a15 15 0 0 0 10.607-4.394l124.667-124.667c5.858-5.858 5.858-15.354-.001-21.212zM35 30h160v123.454l-85.606 85.605c-.302.301-.581.619-.854.942H35V30zm124.12 250H135v-24.121l109.667-109.666 24.12 24.12L159.12 280z"/></svg>