<svg id="ret" xmlns="http://www.w3.org/2000/svg" viewBox="0 0 713.9 518.8"><path class="st0" d="M223.5 444.9c1.3 0 2.6-.4 3.7-1 3.1-.8 5.4-3.7 5.4-7v-34.8c0-5.2-4.2-9.4-9.4-9.4H166c-1.6 0-3.2.4-4.5 1.2-3.8 1.2-6.7 4.8-6.7 9v34.8c0 4 3.3 7.3 7.3 7.3h61.4zm-52.3-15.4V408h45v21.5h-45zM281.6 175.2c-1.5 0-3 .4-4.3 1.1-3.6 1.1-6.3 4.4-6.3 8.4v48.9c0 4.8 3.9 8.8 8.8 8.8h35.3c1.5 0 3-.4 4.3-1.1 3.6-1.1 6.3-4.4 6.3-8.4V184c0-4.8-3.9-8.8-8.8-8.8h-35.3zm5.8 51.9v-36.5h21.8v36.5h-21.8zM394.3 184c0-4.8-3.9-8.8-8.8-8.8h-35.3c-1.5 0-3 .4-4.3 1.1-3.6 1.1-6.3 4.4-6.3 8.4v48.9c0 4.8 3.9 8.8 8.8 8.8h35.3c1.5 0 3-.4 4.3-1.1 3.6-1.1 6.3-4.4 6.3-8.4V184zm-38.2 43.1v-36.5H378v36.5h-21.9zM385.5 276.4h-35.3c-1.5 0-3 .4-4.3 1.1-3.6 1.1-6.3 4.4-6.3 8.4v48.9c0 4.8 3.9 8.8 8.8 8.8h35.3c1.5 0 3-.4 4.3-1.1 3.6-1.1 6.3-4.4 6.3-8.4v-48.9c0-4.8-3.9-8.8-8.8-8.8zm-29.4 51.9v-36.5H378v36.5h-21.9z"/><path class="st0" d="M703.3 456.9L578 331.6c57.9-86.3 35-203.2-51.3-261.1s-203.2-35-261.1 51.3-35 203.2 51.3 261.1c63.4 42.6 146.4 42.6 209.8 0L652 508.2c14.2 14.2 37.1 14.2 51.3 0 14.2-14.2 14.2-37.1 0-51.3zM422 398.8c-94.9-.1-171.9-77.1-172-172 0-95 77-172 172-172s172 77 172 172-77.1 172-172 172zm270 98.1c-3.8 3.8-9 5.9-14.4 5.9s-10.5-2.1-14.3-5.9l-122-122.1 28.7-28.7 122 122.1c7.9 7.9 7.9 20.8 0 28.7z"/><path class="st0" d="M426.2 70.9l-.4 16c41.4 1.1 80.2 20.5 105.9 52.9l12.5-10c-28.7-36.1-71.9-57.7-118-58.9zM555.8 146.7l-13.7 8.2c3 5 5.7 10.1 8 15.4l14.6-6.5c-2.6-5.8-5.6-11.6-8.9-17.1zM253.1 112.7c1.2-1.8 2.5-3.6 3.8-5.4V82.7c0-4.8-3.9-8.8-8.8-8.8h-35.3c-1.5 0-3 .4-4.3 1.1-3.6 1.1-6.3 4.4-6.3 8.4v48.9c0 4.8 3.9 8.8 8.8 8.8h26c4.6-9.7 9.9-19.2 16.1-28.4zm-34.4-23.4h21.8v36.5h-21.8V89.3zM309.2 395.1v34.5h-21.8V393h18.8c-6.9-4.8-13.4-9.9-19.5-15.3h-6.6c-1.3 0-2.6.4-3.7 1-3.1.8-5.4 3.7-5.4 7v51.9c0 4 3.3 7.3 7.3 7.3h38.2c1.3 0 2.6-.4 3.7-1 3.1-.8 5.4-3.7 5.4-7v-32c-5.6-3-11-6.3-16.4-9.8zM325.6 334.1v-48.9c0-4.8-3.9-8.8-8.8-8.8H281.4c-2.8 0-5.4 1.3-7 3.4 3.5 9.4 7.8 18.4 12.9 26.9V291h23.4v37.2H303c4.4 5.2 9.2 10 14.3 14.6 4.6-.2 8.3-4 8.3-8.7zM418.6 142.3H418.9c4 0 7.3-3.3 7.3-7.3v-33.8h-.8l-13.9-.4v33.9c0 4 3 7.5 7.1 7.6z"/><path class="st0" d="M463.8 471h-4.5c-2-18.8-15.4-34.2-33.2-39.1V429c-1.5 0-2.9.1-4.4.1-3.5 0-6.9-.1-10.3-.3v1.6h-.1c-.3 0-.6.1-.9.1-.6 0-1.1.1-1.7.1-.3 0-.7.1-1 .1-.5.1-1 .1-1.5.2-.4.1-.7.1-1.1.2l-1.5.3c-.4.1-.7.2-1.1.3-.5.1-.9.2-1.4.4-.4.1-.7.2-1.1.3-.5.1-.9.3-1.4.5-.4.1-.7.3-1.1.4-.4.2-.9.3-1.3.5-.4.1-.7.3-1 .5-.3.1-.6.3-.9.4v-7.6c-4.9-.7-9.9-1.5-14.7-2.6v4.8h-23.4V418c-5-1.7-9.9-3.6-14.7-5.7v22.8c0 4.9 3.9 8.8 8.8 8.8H381.5l-.7.7c-.4.4-.8.9-1.2 1.3l-.6.6c-.6.7-1.1 1.4-1.6 2.1l-2.4.6c-.3.1-.5.2-.8.2-.5.2-1.1.3-1.6.5l-.9.3c-.5.2-1 .4-1.4.6-.3.1-.6.3-.9.4-.5.2-.9.4-1.4.7-.3.1-.5.3-.8.4-.5.3-1 .5-1.4.8-.2.1-.5.3-.7.4l-1.8 1.2c-.1 0-.1.1-.2.1-.7.5-1.3 1-1.9 1.5-.2.1-.3.3-.5.5-.4.4-.9.8-1.3 1.2l-.6.6c-.4.4-.7.8-1.1 1.1-.2.2-.4.5-.6.7-.3.4-.7.8-1 1.2-.2.2-.4.5-.6.7-.3.4-.6.9-.9 1.3-.2.2-.3.5-.5.7-.4.6-.7 1.1-1 1.7-.1.1-.2.3-.2.4-.4.7-.8 1.5-1.1 2.2l-.3.6c-.2.5-.4.9-.6 1.4h-94V363.8l2.6 1.7c.5.4 1.1.7 1.7 1 .1 0 .2.1.3.1.6.2 1.1.5 1.7.7 2.2.8 4.5 1.3 6.8 1.3h.1c.5 0 1 0 1.5-.1 1-.1 1.9-.2 2.9-.5.6-.1 1.2-.3 1.7-.5-6.1-6.3-11.7-12.9-16.9-19.8l-5.6-3.7-90.4-60c-1.2-.8-2.5-1.3-3.9-1.5-.1 0-.2-.1-.3-.1h-.1c-.5-.1-1-.1-1.6-.1-1.5 0-3.1.4-4.5 1.1-.4.2-.8.4-1.2.7L47.3 353.4c-.8.5-1.5.7-2.1.7-.4 0-.7-.1-.9-.1-.6-.2-1.8-.6-2.5-2-1-1.8-.4-4 1.3-5.2l114.4-76.1 90.3 60.1c-5.1-8.5-9.6-17.4-13.4-26.5l-15.7-10.5V291h10.7c-1.6-4.8-3.1-9.7-4.3-14.6h-12.4c-4.4 0-8.1 3.3-8.7 7.6l-17.2-11.5V45.3h141.9c11.7-6 23.9-10.9 36.6-14.6h-155V14.6H388v11c4.9-.8 9.8-1.5 14.7-1.9V10.5C402.7 4.7 398 0 392.2 0H206.1c-5.8 0-10.5 4.7-10.5 10.5v20.2h-11.1c-6.8 0-12.3 5.5-12.3 12.3v219.8l-8.8-5.9c-1.8-1.2-3.8-1.7-5.8-1.7s-4 .6-5.8 1.7l-29.7 19.7v-9.7c0-6.5-5.3-11.7-11.7-11.7H75.4c-6.5 0-11.7 5.3-11.7 11.7v11.6c0 4.5 2.5 8.3 6.2 10.3v22.5l-35 23.3c-8 5.3-10.6 15.7-6.1 24.2 2.5 4.6 6.8 8 11.8 9.2 1.5.4 3 .6 4.5.6h.2c3.6 0 7.2-1.1 10.3-3.1l2.6-1.7v35.6c0 4 3.1 7.5 7.1 7.6H65.6c4 0 7.3-3.3 7.3-7.3V354l84.6-56.3 84.6 56.3v117h-93.3v-78.4c0-5.8-4.7-10.4-10.4-10.4H90.6c-5.8 0-10.5 4.7-10.5 10.5v77.1c0 .3.1.6.2.9v.3h-7.4v-25.9c0-4-3.3-7.3-7.3-7.3s-7.3 3.3-7.3 7.3V471H20.5C9.2 471 0 480.2 0 491.5S9.2 512 20.5 512H463.8c.5 0 1 0 1.5-.1.4 0 .8-.1 1.2-.1.1 0 .3 0 .4-.1 9.8-1.5 17.3-10 17.3-20.2.1-11.3-9.1-20.5-20.4-20.5zM101.1 290.6l-16.5 11v-11.3h16.5v.3zm-22.7-20.8h28.9v5.8H78.4v-5.8zm289.5 201c.1-.1.1-.2.2-.3.3-.4.6-.7.9-1l.1-.1c.3-.4.7-.7 1.1-1 .1-.1.2-.2.3-.2.4-.3.7-.6 1.1-.9 0 0 .1 0 .1-.1.4-.3.8-.5 1.1-.8.1-.1.2-.1.3-.2.4-.3.8-.5 1.3-.8.1 0 .1-.1.2-.1l1.2-.6c.1 0 .2-.1.3-.1.5-.2.9-.4 1.4-.6.1 0 .2-.1.3-.1.4-.1.9-.3 1.3-.4.1 0 .1 0 .2-.1l1.5-.3c.1 0 .2 0 .3-.1.5-.1 1-.2 1.5-.2 2.2-.2 4.2-1.5 5.4-3.4 5.7-9.1 15.4-14.5 26.1-14.5.6 0 1.2 0 1.8.1h.1c.6 0 1.2.1 1.9.2h.1c13.6 1.7 24.4 12.3 26.6 25.8h-76.8c0-.1 0-.1.1-.2zm-273.1-74H134V471H94.8v-74.2zm368.8 100.6H20.5c-3.3 0-5.9-2.7-5.9-5.9s2.7-5.9 5.9-5.9h442.9c3 0 5.7 2.2 6.1 5.2.5 3.5-2.3 6.6-5.9 6.6z"/><path class="st0" d="M426.2 383V180.3c0-4-3.2-7.3-7.2-7.3H418.7c-4 0-7.3 3.3-7.3 7.3v202.4c3.5.2 7 .4 10.5.4 1.5 0 2.9 0 4.3-.1z"/><g><path class="st0" d="M319.3 140.1c3.6-1.1 6.3-4.4 6.3-8.4v-29.4c-5.8 4.5-11.2 9.4-16.3 14.7v8.9h-8c-4.1 4.9-7.8 10-11.3 15.3h25.1c1.5 0 3-.4 4.2-1.1z"/></g><path class="st0" d="M339.8 132.4c0 4.8 3.9 8.8 8.8 8.8h35.3c1.5 0 3-.4 4.3-1.1 3.6-1.1 6.3-4.4 6.3-8.4v-49c0-4.8-3.9-8.8-8.8-8.8h-2.4c-15.5 4-30.1 10.2-43.4 18.4v40.1zm16.3-43.1H378v36.5h-21.8V89.3zM218.7 227.1v-36.5h3.1c.9-5.1 2-10.2 3.3-15.3h-12.2c-1.5 0-3 .4-4.3 1.1-3.6 1.1-6.3 4.4-6.3 8.4v48.9c0 4.8 3.9 8.8 8.8 8.8h8.3c-.4-5.2-.7-10.3-.7-15.4z"/></svg>