<svg id="skype" xmlns="http://www.w3.org/2000/svg" viewBox="0 0 512 512"><path d="M313.7 252.1c-6.2-4.1-13.7-7.7-22.4-10.5-8.6-2.8-18.4-5.5-29-7.8-8.4-2-14.5-3.5-18.1-4.6-3.6-1-7.1-2.4-10.5-4.2-3.3-1.7-6-3.8-7.8-6.1-1.8-2.2-2.6-4.8-2.6-7.9 0-5 2.7-9.2 8.1-12.9 5.7-3.8 13.3-5.8 22.7-5.8 10.1 0 17.5 1.7 21.9 5.2 4.5 3.5 8.5 8.6 11.8 15 2.8 5 5.4 8.5 7.8 10.7 2.6 2.4 6.4 3.6 11.3 3.6 5.3 0 9.9-1.9 13.5-5.8 3.6-3.8 5.4-8.2 5.4-13 0-5-1.4-10.2-4.1-15.4-2.7-5.1-7-10.1-12.7-14.7-5.7-4.6-13-8.3-21.6-11.1-8.6-2.7-18.9-4.1-30.6-4.1-14.6 0-27.6 2.1-38.5 6.2-11 4.2-19.6 10.3-25.4 18.2-5.9 7.9-8.9 17.1-8.9 27.3 0 10.7 2.9 19.8 8.5 27 5.5 7.1 13.1 12.8 22.5 17 9.2 4 20.7 7.6 34.3 10.6 10 2.1 18.1 4.2 24 6.1 5.7 1.8 10.4 4.5 14 7.9 3.4 3.3 5.1 7.5 5.1 12.8 0 6.7-3.2 12.2-9.7 16.8-6.7 4.7-15.6 7.1-26.4 7.1-7.9 0-14.3-1.2-19-3.5-4.7-2.3-8.4-5.2-11-8.7-2.7-3.6-5.2-8.3-7.5-13.7-2.1-5-4.7-8.9-7.7-11.5-3.2-2.7-7-4.1-11.5-4.1-5.5 0-10.1 1.8-13.7 5.2-3.6 3.5-5.5 7.8-5.5 12.7 0 7.9 2.8 16.1 8.4 24.4 5.5 8.2 12.8 14.8 21.6 19.7 12.3 6.7 28.1 10.1 46.9 10.1 15.7 0 29.5-2.5 41-7.4 11.6-5 20.6-12 26.6-20.8 6.1-8.9 9.2-19 9.2-30.1 0-9.3-1.8-17.3-5.3-23.7-3.8-6.6-8.8-12-15.1-16.2zM256 0C114.6 0 0 114.6 0 256s114.6 256 256 256 256-114.6 256-256S397.4 0 256 0zm61.4 399.4c-13 0-25.2-3.4-35.9-9.3-7.8 1.5-15.8 2.3-24 2.3-72.4 0-131.1-60.4-131.1-134.8 0-9.3.9-18.4 2.7-27.1-6.6-11.6-10.4-25.1-10.4-39.6 0-43.2 34-78.2 76-78.2 14.9 0 28.7 4.4 40.4 12 7.3-1.3 14.8-2 22.4-2 72.4 0 131.1 60.4 131.1 134.8 0 9.9-1.1 19.6-3 28.9 5.1 10.5 7.9 22.3 7.9 34.7-.1 43.2-34.2 78.3-76.1 78.3z"/></svg>