<svg id="video" xmlns="http://www.w3.org/2000/svg" viewBox="0 0 512 512"><path d="M492 106.8c-18.5-22-52.6-30.9-117.8-30.9H137.7c-66.7 0-101.4 9.5-119.8 32.9C0 131.6 0 165.2 0 211.7v88.6c0 90.1 21.3 135.8 137.7 135.8h236.6c56.5 0 87.8-7.9 108.1-27.3C503.1 389 512 356.5 512 300.3v-88.6c0-49.1-1.4-82.9-20-104.9zM328.7 268.2l-107.4 56.1c-2.4 1.3-5 1.9-7.7 1.9-3 0-5.9-.8-8.6-2.4-4.9-3-8-8.4-8-14.1V197.8c0-5.8 3-11.1 7.9-14.1s11.1-3.2 16.2-.5L328.5 239c5.5 2.8 8.9 8.5 8.9 14.6.2 6.1-3.2 11.8-8.7 14.6z"/></svg>